<svg width="81" height="80" viewBox="0 0 81 80" fill="none" xmlns="http://www.w3.org/2000/svg">
<path d="M39.338 37.2393C39.4145 37.2972 39.5085 37.3287 39.6054 37.329C39.7022 37.3287 39.7962 37.2972 39.8727 37.2393C42.3098 35.3939 43.9886 33.8047 45.1633 32.237C46.6624 30.2335 47.0043 28.3837 46.1803 26.7391C45.5929 25.5643 43.901 24.6117 41.9329 25.1628C40.9924 25.4275 40.1719 25.9953 39.6054 26.7733C39.0388 25.9953 38.2183 25.4275 37.2778 25.1628C35.3054 24.6031 33.6178 25.5643 33.0305 26.7391C32.2064 28.3837 32.5483 30.2335 34.0474 32.237C35.2221 33.8047 36.9009 35.3939 39.338 37.2393Z" stroke="#1A4A67" stroke-width="3"/>
<path d="M16.3216 30.3096H14.8216V30.3837L14.8289 30.4574L16.3216 30.3096ZM58.6253 40.2181L60.0463 40.6984L60.0473 40.6955L58.6253 40.2181ZM16.9447 36.6037L18.2345 37.3695L18.486 36.946L18.4374 36.4559L16.9447 36.6037ZM14.2651 48.2571L12.7825 48.4851L12.9782 49.7571H14.2651V48.2571ZM18.3781 48.2571L19.8552 47.9964L19.6365 46.7571H18.3781V48.2571ZM19.8925 56.8387L18.4153 57.0994L19.8925 56.8387ZM54.8338 51.4352L53.4127 50.9549L53.3338 51.1886V51.4352H54.8338ZM17.8216 30.3096C17.8216 18.8168 27.1383 9.5 38.6312 9.5V6.5C25.4815 6.5 14.8216 17.1599 14.8216 30.3096H17.8216ZM38.6312 9.5C50.124 9.5 59.4408 18.8168 59.4408 30.3096H62.4408C62.4408 17.1599 51.7809 6.5 38.6312 6.5V9.5ZM59.4408 30.3096C59.4408 33.5663 58.6161 35.5325 57.2033 39.7407L60.0473 40.6955C61.3961 36.6778 62.4408 34.1709 62.4408 30.3096H59.4408ZM14.8289 30.4574L15.452 36.7515L18.4374 36.4559L17.8143 30.1618L14.8289 30.4574ZM15.6549 35.8379C14.9988 36.9429 14.1035 38.8387 13.4587 41.0585C12.8163 43.2698 12.3879 45.9203 12.7825 48.4851L15.7476 48.029C15.4443 46.0571 15.7637 43.878 16.3396 41.8954C16.9131 39.9212 17.7066 38.2586 18.2345 37.3695L15.6549 35.8379ZM14.2651 49.7571H18.3781V46.7571H14.2651V49.7571ZM16.9009 48.5177L18.4153 57.0994L21.3696 56.5781L19.8552 47.9964L16.9009 48.5177ZM24.8164 62.4698H30.3907V59.4698H24.8164V62.4698ZM33.8907 65.9698V72H36.8907V65.9698H33.8907ZM57.2042 39.7378L53.4127 50.9549L56.2548 51.9156L60.0463 40.6984L57.2042 39.7378ZM53.3338 51.4352V72H56.3338V51.4352H53.3338ZM30.3907 62.4698C32.3237 62.4698 33.8907 64.0368 33.8907 65.9698H36.8907C36.8907 62.38 33.9806 59.4698 30.3907 59.4698V62.4698ZM18.4153 57.0994C18.9634 60.2055 21.6623 62.4698 24.8164 62.4698V59.4698C23.1181 59.4698 21.6648 58.2506 21.3696 56.5781L18.4153 57.0994Z" fill="#1A4A67"/>
<circle cx="39.0456" cy="30.4518" r="14.9518" stroke="#1A4A67" stroke-width="3"/>
</svg>
