<svg width="48" height="48" viewBox="0 0 48 48" fill="none" xmlns="http://www.w3.org/2000/svg">
<path d="M19.6475 1.10219C19.6475 3.4992 19.1008 8.54555 11.9939 9.2184C4.88692 9.89125 2.82634 11.1528 3.28892 23.3902C3.7515 35.6276 2.2376 42.1038 1.10217 45.0475C0.956188 45.426 0.976061 46.267 1.10217 46.8978M24.0073 26.0396C24.0073 28.4366 20.2362 33.4829 14.517 33.4829C9.26043 33.4829 7.03163 28.6889 7.03163 26.0396C7.03163 23.0538 8.29322 20.4886 11.0687 19.1429M8.96607 30.8336C8.96607 33.9035 11.9939 41.6412 11.9939 46.8978" stroke="white" stroke-width="2" stroke-linecap="round" stroke-linejoin="round"/>
<path d="M28.3525 1.10219C28.3525 3.4992 28.8992 8.54555 36.0061 9.2184C43.1131 9.89125 45.1737 11.1528 44.7111 23.3902C44.2485 35.6276 45.7624 42.1038 46.8978 45.0475C47.0438 45.426 47.0239 46.267 46.8978 46.8978M23.9927 26.0396C23.9927 28.4366 27.7638 33.4829 33.483 33.4829C38.7396 33.4829 40.9684 28.6889 40.9684 26.0396C40.9684 23.0538 39.7068 20.4886 36.9313 19.1429M39.0339 30.8336C39.0339 33.9035 36.0061 41.6412 36.0061 46.8978" stroke="white" stroke-width="2" stroke-linecap="round" stroke-linejoin="round"/>
</svg>
