<svg width="46" height="48" viewBox="0 0 46 48" fill="none" xmlns="http://www.w3.org/2000/svg">
<path d="M13.6328 27.0944C14.6364 28.0423 17.4132 29.3693 20.491 27.0944" stroke="#1A4A67" stroke-width="1.8" stroke-linecap="round"/>
<path d="M21.1597 32.6147C21.8091 33.1653 23.3244 33.7945 24.8397 32.6147" stroke="#1A4A67" stroke-width="1.8" stroke-linecap="round"/>
<path d="M23.1673 1C11.4582 1 6.77454 11.2036 6.77454 18.3964C6.77454 24.1505 8.44727 27.8194 9.28363 28.9345C8.89333 28.377 8.17959 27.2618 7.10904 27.2618C5.77086 27.2618 5.26904 28.7554 5.26904 29.9382C5.26904 33.6182 7.61091 36.2945 10.7891 37.1309" stroke="#1A4A67" stroke-width="1.8" stroke-linecap="round" stroke-linejoin="round"/>
<path d="M12.1274 23.7491C12.7965 22.9127 13.6998 22.0095 14.6365 21.7419C15.8074 21.4073 17.3129 21.7419 20.4911 22.9127" stroke="#1A4A67" stroke-width="1.8" stroke-linecap="round"/>
<path d="M23.0001 47.0001C13.131 47.0001 10.1201 35.6255 10.1201 34.1201" stroke="#1A4A67" stroke-width="1.8" stroke-linecap="round"/>
<path d="M32.3672 27.0944C31.3636 28.0423 28.5868 29.3693 25.509 27.0944" stroke="#1A4A67" stroke-width="1.8" stroke-linecap="round"/>
<path d="M22.8327 1C34.5418 1 39.2255 11.2036 39.2255 18.3964C39.2255 24.1505 37.5527 27.8194 36.7164 28.9345C37.1067 28.377 37.8204 27.2618 38.891 27.2618C40.2291 27.2618 40.731 28.7554 40.731 29.9382C40.731 33.6182 38.3891 36.2945 35.2109 37.1309" stroke="#1A4A67" stroke-width="1.8" stroke-linecap="round" stroke-linejoin="round"/>
<path d="M33.8726 23.7491C33.2035 22.9127 32.3002 22.0095 31.3635 21.7419C30.1926 21.4073 28.6871 21.7419 25.5089 22.9127" stroke="#1A4A67" stroke-width="1.8" stroke-linecap="round"/>
<path d="M22.9999 47.0001C32.869 47.0001 35.8799 35.6255 35.8799 34.1201" stroke="#1A4A67" stroke-width="1.8" stroke-linecap="round"/>
<path d="M22.8327 42.3164C21.3273 42.3164 19.0858 41.9484 17.48 39.1383C17.7588 39.0825 18.4428 38.6773 19.6545 37.4655C20.9927 36.1273 22.1636 37.1309 22.8327 37.6327" stroke="#1A4A67" stroke-width="1.8" stroke-linecap="round"/>
<path d="M22.8327 42.3164C24.3382 42.3164 26.9142 41.9484 28.52 39.1382C28.2412 39.0825 27.5572 38.6773 26.3455 37.4655C25.0073 36.1273 23.5018 37.1309 22.8327 37.6327" stroke="#1A4A67" stroke-width="1.8" stroke-linecap="round"/>
<path d="M8.9491 28.4327C8.00122 25.5333 8.35258 19.4074 14.6363 15.2182C20.1564 11.5382 24.1709 13.88 30.1927 6.85455" stroke="#1A4A67" stroke-width="1.8" stroke-linecap="round"/>
<path d="M25.0073 14.2145C29.5237 14.4933 38.4895 17.56 37.5528 27.5964" stroke="#1A4A67" stroke-width="1.8" stroke-linecap="round"/>
</svg>
