<svg width="46" height="72" viewBox="0 0 46 72" fill="none" xmlns="http://www.w3.org/2000/svg">
<path d="M20.6872 1C20.6872 0.585786 20.3515 0.25 19.9372 0.25C19.523 0.25 19.1872 0.585786 19.1872 1H20.6872ZM7.18353 31.2214L6.48378 30.9515C6.46486 31.0006 6.45115 31.0515 6.44287 31.1034L7.18353 31.2214ZM23.6855 18.1496C23.6855 17.7353 23.3497 17.3996 22.9355 17.3996C22.5213 17.3996 22.1855 17.7353 22.1855 18.1496H23.6855ZM11.2613 18.1496H10.5113H11.2613ZM14.3648 14.0815C14.7375 13.9008 14.8931 13.4522 14.7124 13.0795C14.5317 12.7068 14.0831 12.5511 13.7104 12.7318L14.3648 14.0815ZM13.3416 21.4464C13.3416 21.0322 13.0058 20.6964 12.5916 20.6964C12.1774 20.6964 11.8416 21.0322 11.8416 21.4464H13.3416ZM8.06249 47.4761C8.08426 47.8897 8.43724 48.2074 8.85088 48.1856C9.26452 48.1638 9.58219 47.8109 9.56042 47.3972L8.06249 47.4761ZM13.3007 71.07C13.3007 71.4842 13.6364 71.82 14.0507 71.82C14.4649 71.82 14.8007 71.4842 14.8007 71.07H13.3007ZM22.2267 71.07C22.2267 71.4842 22.5625 71.82 22.9767 71.82C23.391 71.82 23.7267 71.4842 23.7267 71.07H22.2267ZM23.7267 43.2344V42.4844H22.2267V43.2344H23.7267ZM19.1872 1C19.1872 1.78323 19.0934 2.88912 18.5018 3.83884C17.9385 4.74295 16.85 5.62218 14.6031 5.8349L14.7445 7.32822C17.3851 7.07822 18.9283 5.99089 19.7749 4.63201C20.5931 3.31874 20.6872 1.86521 20.6872 1H19.1872ZM14.6031 5.8349C12.2045 6.06199 10.2628 6.39533 9.11336 8.04312C8.55364 8.84554 8.2296 9.89183 8.05744 11.2233C7.88498 12.557 7.85784 14.2378 7.93791 16.3559L9.43684 16.2993C9.35784 14.2095 9.38854 12.626 9.54505 11.4156C9.70185 10.2031 9.97791 9.42558 10.3436 8.90129C11.0451 7.89567 12.2557 7.56385 14.7445 7.32822L14.6031 5.8349ZM7.93791 16.3559C8.25362 24.7079 7.2164 29.0521 6.48378 30.9515L7.88329 31.4913C8.71235 29.3419 9.75737 24.7787 9.43684 16.2993L7.93791 16.3559ZM22.1855 18.1496C22.1855 18.3882 22.083 18.787 21.8107 19.2851C21.5459 19.7695 21.1484 20.2957 20.633 20.7812C19.6013 21.7528 18.1459 22.5184 16.409 22.5184V24.0184C18.6052 24.0184 20.4131 23.0488 21.6614 21.8731C22.2859 21.285 22.7826 20.6345 23.1269 20.0046C23.4638 19.3883 23.6855 18.7351 23.6855 18.1496H22.1855ZM16.409 22.5184C14.8603 22.5184 13.7794 21.8235 13.0669 20.9259C12.3339 20.0025 12.0113 18.8861 12.0113 18.1496H10.5113C10.5113 19.235 10.955 20.678 11.8921 21.8585C12.8497 23.0649 14.3427 24.0184 16.409 24.0184V22.5184ZM12.0113 18.1496C12.0113 16.3233 12.7648 14.8573 14.3648 14.0815L13.7104 12.7318C11.4929 13.807 10.5113 15.8692 10.5113 18.1496H12.0113ZM11.8416 21.4464C11.8416 22.1194 12.0603 22.8403 12.3296 23.5369C12.6006 24.2381 12.9661 25.0178 13.3057 25.7865C14.0063 27.3723 14.6419 29.0149 14.6419 30.6482H16.1419C16.1419 28.6665 15.3773 26.7638 14.6778 25.1803C14.3173 24.3643 13.9827 23.6533 13.7287 22.9961C13.4729 22.3343 13.3416 21.8291 13.3416 21.4464H11.8416ZM6.44287 31.1034C6.1287 33.0756 6.39626 33.9657 6.78486 35.8974C7.16993 37.8115 7.71739 40.9201 8.06249 47.4761L9.56042 47.3972C9.21168 40.7722 8.65561 37.5909 8.2554 35.6015C7.85871 33.6297 7.65923 33.0027 7.9242 31.3394L6.44287 31.1034ZM14.6419 30.6482C14.6419 34.6398 13.1042 36.9878 11.4666 39.3756C9.81818 41.7789 8.02824 44.2659 8.02824 48.3616H9.52824C9.52824 44.78 11.0451 42.642 12.7036 40.224C14.3727 37.7903 16.1419 35.1202 16.1419 30.6482H14.6419ZM8.02824 48.3616C8.02824 52.3408 9.39047 56.6632 10.7024 60.6278C11.3652 62.6306 12.0158 64.5413 12.5035 66.3216C12.9919 68.1047 13.3007 69.702 13.3007 71.07H14.8007C14.8007 69.5012 14.4503 67.7512 13.9502 65.9254C13.4493 64.0968 12.7818 62.137 12.1265 60.1566C10.8022 56.1548 9.52824 52.0599 9.52824 48.3616H8.02824ZM23.7267 71.07V43.2344H22.2267V71.07H23.7267Z" fill="white"/>
<path d="M11.5068 40.4988C14.3743 42.1175 19.6929 42.4875 22.7916 42.4875V56.1773C20.6827 51.1454 12.6322 48.4074 8.87061 47.6674L11.5068 40.4988Z" fill="white"/>
<path d="M26.0623 1C26.0623 2.64844 26.4382 6.11884 31.3257 6.58156C36.2132 7.04428 37.6303 7.91188 37.3121 16.3276C36.994 24.7433 38.0351 29.197 38.816 31.2214C39.3951 34.8569 37.8819 34.2556 37.1881 47.4367M23.064 18.1496C23.064 19.798 25.6574 23.2684 29.5905 23.2684C33.2055 23.2684 34.7383 19.9715 34.7383 18.1496C34.7383 16.0962 33.8707 14.3321 31.9619 13.4067M33.4079 21.4464C33.4079 23.5576 30.6076 27.0332 30.6076 30.6482C30.6076 39.1118 37.2213 40.6843 37.2213 48.3616C37.2213 56.039 31.9489 65.1964 31.9489 71.07" stroke="white" stroke-width="1.5" stroke-linecap="round" stroke-linejoin="round"/>
<path d="M34.4927 40.4988C31.6253 42.1175 26.3066 42.4875 23.2079 42.4875V56.1773C25.3169 51.1454 33.3673 48.4074 37.1289 47.6674L34.4927 40.4988Z" fill="white"/>
</svg>
