<svg width="165" height="172" viewBox="0 0 165 172" fill="none" xmlns="http://www.w3.org/2000/svg">
<ellipse cx="4.78958" cy="5" rx="4.78958" ry="5" fill="#FF5F7E"/>
<ellipse cx="39.2746" cy="5" rx="4.78958" ry="5" fill="#FF5F7E"/>
<ellipse cx="73.7595" cy="5" rx="4.78958" ry="5" fill="#FF5F7E"/>
<ellipse cx="108.244" cy="5" rx="4.78958" ry="5" fill="#FF5F7E"/>
<ellipse cx="142.729" cy="5" rx="4.78958" ry="5" fill="#FF5F7E"/>
<ellipse cx="22.0321" cy="5" rx="4.78958" ry="5" fill="#FF5F7E"/>
<ellipse cx="56.517" cy="5" rx="4.78958" ry="5" fill="#FF5F7E"/>
<ellipse cx="91.002" cy="5" rx="4.78958" ry="5" fill="#FF5F7E"/>
<ellipse cx="125.487" cy="5" rx="4.78958" ry="5" fill="#FF5F7E"/>
<ellipse cx="159.972" cy="5" rx="4.78958" ry="5" fill="#FF5F7E"/>
<ellipse cx="4.78958" cy="41" rx="4.78958" ry="5" fill="#FF5F7E"/>
<ellipse cx="39.2746" cy="41" rx="4.78958" ry="5" fill="#FF5F7E"/>
<ellipse cx="73.7595" cy="41" rx="4.78958" ry="5" fill="#FF5F7E"/>
<ellipse cx="108.244" cy="41" rx="4.78958" ry="5" fill="#FF5F7E"/>
<ellipse cx="142.729" cy="41" rx="4.78958" ry="5" fill="#FF5F7E"/>
<ellipse cx="22.0321" cy="41" rx="4.78958" ry="5" fill="#FF5F7E"/>
<ellipse cx="56.517" cy="41" rx="4.78958" ry="5" fill="#FF5F7E"/>
<ellipse cx="91.002" cy="41" rx="4.78958" ry="5" fill="#FF5F7E"/>
<ellipse cx="125.487" cy="41" rx="4.78958" ry="5" fill="#FF5F7E"/>
<ellipse cx="159.972" cy="41" rx="4.78958" ry="5" fill="#FF5F7E"/>
<ellipse cx="4.78958" cy="77" rx="4.78958" ry="5" fill="#FF5F7E"/>
<ellipse cx="39.2746" cy="77" rx="4.78958" ry="5" fill="#FF5F7E"/>
<ellipse cx="73.7595" cy="77" rx="4.78958" ry="5" fill="#FF5F7E"/>
<ellipse cx="108.244" cy="77" rx="4.78958" ry="5" fill="#FF5F7E"/>
<ellipse cx="142.729" cy="77" rx="4.78958" ry="5" fill="#FF5F7E"/>
<ellipse cx="22.0321" cy="77" rx="4.78958" ry="5" fill="#FF5F7E"/>
<ellipse cx="56.517" cy="77" rx="4.78958" ry="5" fill="#FF5F7E"/>
<ellipse cx="91.002" cy="77" rx="4.78958" ry="5" fill="#FF5F7E"/>
<ellipse cx="125.487" cy="77" rx="4.78958" ry="5" fill="#FF5F7E"/>
<ellipse cx="159.972" cy="77" rx="4.78958" ry="5" fill="#FF5F7E"/>
<ellipse cx="4.78958" cy="113" rx="4.78958" ry="5" fill="#FF5F7E"/>
<ellipse cx="39.2746" cy="113" rx="4.78958" ry="5" fill="#FF5F7E"/>
<ellipse cx="73.7595" cy="113" rx="4.78958" ry="5" fill="#FF5F7E"/>
<ellipse cx="108.244" cy="113" rx="4.78958" ry="5" fill="#FF5F7E"/>
<ellipse cx="142.729" cy="113" rx="4.78958" ry="5" fill="#FF5F7E"/>
<ellipse cx="22.0321" cy="113" rx="4.78958" ry="5" fill="#FF5F7E"/>
<ellipse cx="56.517" cy="113" rx="4.78958" ry="5" fill="#FF5F7E"/>
<ellipse cx="91.002" cy="113" rx="4.78958" ry="5" fill="#FF5F7E"/>
<ellipse cx="125.487" cy="113" rx="4.78958" ry="5" fill="#FF5F7E"/>
<ellipse cx="159.972" cy="113" rx="4.78958" ry="5" fill="#FF5F7E"/>
<ellipse cx="4.78958" cy="149" rx="4.78958" ry="5" fill="#FF5F7E"/>
<ellipse cx="39.2746" cy="149" rx="4.78958" ry="5" fill="#FF5F7E"/>
<ellipse cx="73.7595" cy="149" rx="4.78958" ry="5" fill="#FF5F7E"/>
<ellipse cx="108.244" cy="149" rx="4.78958" ry="5" fill="#FF5F7E"/>
<ellipse cx="142.729" cy="149" rx="4.78958" ry="5" fill="#FF5F7E"/>
<ellipse cx="22.0321" cy="149" rx="4.78958" ry="5" fill="#FF5F7E"/>
<ellipse cx="56.517" cy="149" rx="4.78958" ry="5" fill="#FF5F7E"/>
<ellipse cx="91.002" cy="149" rx="4.78958" ry="5" fill="#FF5F7E"/>
<ellipse cx="125.487" cy="149" rx="4.78958" ry="5" fill="#FF5F7E"/>
<ellipse cx="159.972" cy="149" rx="4.78958" ry="5" fill="#FF5F7E"/>
<ellipse cx="4.78958" cy="23" rx="4.78958" ry="5" fill="#FF5F7E"/>
<ellipse cx="39.2746" cy="23" rx="4.78958" ry="5" fill="#FF5F7E"/>
<ellipse cx="73.7595" cy="23" rx="4.78958" ry="5" fill="#FF5F7E"/>
<ellipse cx="108.244" cy="23" rx="4.78958" ry="5" fill="#FF5F7E"/>
<ellipse cx="142.729" cy="23" rx="4.78958" ry="5" fill="#FF5F7E"/>
<ellipse cx="22.0321" cy="23" rx="4.78958" ry="5" fill="#FF5F7E"/>
<ellipse cx="56.517" cy="23" rx="4.78958" ry="5" fill="#FF5F7E"/>
<ellipse cx="91.002" cy="23" rx="4.78958" ry="5" fill="#FF5F7E"/>
<ellipse cx="125.487" cy="23" rx="4.78958" ry="5" fill="#FF5F7E"/>
<ellipse cx="159.972" cy="23" rx="4.78958" ry="5" fill="#FF5F7E"/>
<ellipse cx="4.78958" cy="59" rx="4.78958" ry="5" fill="#FF5F7E"/>
<ellipse cx="39.2746" cy="59" rx="4.78958" ry="5" fill="#FF5F7E"/>
<ellipse cx="73.7595" cy="59" rx="4.78958" ry="5" fill="#FF5F7E"/>
<ellipse cx="108.244" cy="59" rx="4.78958" ry="5" fill="#FF5F7E"/>
<ellipse cx="142.729" cy="59" rx="4.78958" ry="5" fill="#FF5F7E"/>
<ellipse cx="22.0321" cy="59" rx="4.78958" ry="5" fill="#FF5F7E"/>
<ellipse cx="56.517" cy="59" rx="4.78958" ry="5" fill="#FF5F7E"/>
<ellipse cx="91.002" cy="59" rx="4.78958" ry="5" fill="#FF5F7E"/>
<ellipse cx="125.487" cy="59" rx="4.78958" ry="5" fill="#FF5F7E"/>
<ellipse cx="159.972" cy="59" rx="4.78958" ry="5" fill="#FF5F7E"/>
<ellipse cx="4.78958" cy="95" rx="4.78958" ry="5" fill="#FF5F7E"/>
<ellipse cx="39.2746" cy="95" rx="4.78958" ry="5" fill="#FF5F7E"/>
<ellipse cx="73.7595" cy="95" rx="4.78958" ry="5" fill="#FF5F7E"/>
<ellipse cx="108.244" cy="95" rx="4.78958" ry="5" fill="#FF5F7E"/>
<ellipse cx="142.729" cy="95" rx="4.78958" ry="5" fill="#FF5F7E"/>
<ellipse cx="22.0321" cy="95" rx="4.78958" ry="5" fill="#FF5F7E"/>
<ellipse cx="56.517" cy="95" rx="4.78958" ry="5" fill="#FF5F7E"/>
<ellipse cx="91.002" cy="95" rx="4.78958" ry="5" fill="#FF5F7E"/>
<ellipse cx="125.487" cy="95" rx="4.78958" ry="5" fill="#FF5F7E"/>
<ellipse cx="159.972" cy="95" rx="4.78958" ry="5" fill="#FF5F7E"/>
<ellipse cx="4.78958" cy="131" rx="4.78958" ry="5" fill="#FF5F7E"/>
<ellipse cx="39.2746" cy="131" rx="4.78958" ry="5" fill="#FF5F7E"/>
<ellipse cx="73.7595" cy="131" rx="4.78958" ry="5" fill="#FF5F7E"/>
<ellipse cx="108.244" cy="131" rx="4.78958" ry="5" fill="#FF5F7E"/>
<ellipse cx="142.729" cy="131" rx="4.78958" ry="5" fill="#FF5F7E"/>
<ellipse cx="22.0321" cy="131" rx="4.78958" ry="5" fill="#FF5F7E"/>
<ellipse cx="56.517" cy="131" rx="4.78958" ry="5" fill="#FF5F7E"/>
<ellipse cx="91.002" cy="131" rx="4.78958" ry="5" fill="#FF5F7E"/>
<ellipse cx="125.487" cy="131" rx="4.78958" ry="5" fill="#FF5F7E"/>
<ellipse cx="159.972" cy="131" rx="4.78958" ry="5" fill="#FF5F7E"/>
<ellipse cx="4.78958" cy="167" rx="4.78958" ry="5" fill="#FF5F7E"/>
<ellipse cx="39.2746" cy="167" rx="4.78958" ry="5" fill="#FF5F7E"/>
<ellipse cx="73.7595" cy="167" rx="4.78958" ry="5" fill="#FF5F7E"/>
<ellipse cx="108.244" cy="167" rx="4.78958" ry="5" fill="#FF5F7E"/>
<ellipse cx="142.729" cy="167" rx="4.78958" ry="5" fill="#FF5F7E"/>
<ellipse cx="22.0321" cy="167" rx="4.78958" ry="5" fill="#FF5F7E"/>
<ellipse cx="56.517" cy="167" rx="4.78958" ry="5" fill="#FF5F7E"/>
<ellipse cx="91.002" cy="167" rx="4.78958" ry="5" fill="#FF5F7E"/>
<ellipse cx="125.487" cy="167" rx="4.78958" ry="5" fill="#FF5F7E"/>
<ellipse cx="159.972" cy="167" rx="4.78958" ry="5" fill="#FF5F7E"/>
</svg>
