<svg width="50" height="50" viewBox="0 0 50 50" fill="none" xmlns="http://www.w3.org/2000/svg">
<rect width="50" height="50" fill="#FF5F7E" fill-opacity="0.5"/>
<path d="M18.9625 13.2824C18.7821 13.4671 18.6812 13.7149 18.6812 13.973C18.6812 14.2311 18.7821 14.479 18.9625 14.6636L29.0383 25L18.9625 35.3343C18.7821 35.5189 18.6812 35.7668 18.6812 36.0249C18.6812 36.283 18.7821 36.5309 18.9625 36.7155C19.0501 36.8055 19.1549 36.8771 19.2707 36.926C19.3865 36.9748 19.5109 37 19.6365 37C19.7622 37 19.8866 36.9748 20.0024 36.926C20.1181 36.8771 20.2229 36.8055 20.3106 36.7155L31.0253 25.7216C31.2135 25.5286 31.3189 25.2696 31.3189 25C31.3189 24.7304 31.2135 24.4714 31.0253 24.2784L20.3106 13.2845C20.2229 13.1945 20.1181 13.1229 20.0024 13.074C19.8866 13.0252 19.7622 13 19.6365 13C19.5109 13 19.3865 13.0252 19.2707 13.074C19.1549 13.1229 19.0501 13.1945 18.9625 13.2845V13.2824Z" fill="white" stroke="white" stroke-linejoin="round"/>
</svg>
