<svg width="50" height="50" viewBox="0 0 50 50" fill="none" xmlns="http://www.w3.org/2000/svg">
<rect width="50" height="50" fill="#FF5F7E"/>
<path d="M31.0375 36.7176C31.2179 36.5329 31.3188 36.2851 31.3188 36.027C31.3188 35.7689 31.2179 35.521 31.0375 35.3364L20.9617 25L31.0375 14.6657C31.2179 14.4811 31.3188 14.2332 31.3188 13.9751C31.3188 13.717 31.2179 13.4691 31.0375 13.2845C30.9499 13.1945 30.8451 13.1229 30.7293 13.074C30.6135 13.0252 30.4891 13 30.3635 13C30.2378 13 30.1134 13.0252 29.9976 13.074C29.8819 13.1229 29.7771 13.1945 29.6894 13.2845L18.9747 24.2784C18.7865 24.4714 18.6811 24.7304 18.6811 25C18.6811 25.2696 18.7865 25.5286 18.9747 25.7216L29.6894 36.7155C29.7771 36.8055 29.8819 36.8771 29.9976 36.926C30.1134 36.9748 30.2378 37 30.3635 37C30.4891 37 30.6135 36.9748 30.7293 36.926C30.8451 36.8771 30.9499 36.8055 31.0375 36.7155L31.0375 36.7176Z" fill="white" stroke="white" stroke-linejoin="round"/>
</svg>
