<svg width="83" height="80" viewBox="0 0 83 80" fill="none" xmlns="http://www.w3.org/2000/svg">
<rect width="82.4443" height="80" rx="40" fill="#FF5F7E" fill-opacity="0.5"/>
<path d="M52.6088 27.4522L53.6244 28.5561L55.8322 26.525L54.8166 25.4211L52.6088 27.4522ZM54.6114 54.7838L55.7171 53.7702L53.6899 51.5587L52.5842 52.5723L54.6114 54.7838ZM43.3679 55.3964C35.9652 55.3964 30.1553 49.4976 30.1553 39.9999H27.1553C27.1553 50.816 33.989 58.3964 43.3679 58.3964V55.3964ZM30.1553 39.9999C30.1553 30.532 36.9728 24.1436 43.5978 24.1436V21.1436C35.0504 21.1436 27.1553 29.1538 27.1553 39.9999H30.1553ZM43.5978 24.1436C47.5974 24.1436 50.3493 24.9962 52.6088 27.4522L54.8166 25.4211C51.7888 22.13 48.0863 21.1436 43.5978 21.1436V24.1436ZM52.5842 52.5723C50.2259 54.7341 47.4475 55.3964 43.3679 55.3964V58.3964C47.7764 58.3964 51.4524 57.6795 54.6114 54.7838L52.5842 52.5723Z" fill="white"/>
<path d="M52.5963 27.4543L53.6138 28.5564L55.818 26.5214L54.8005 25.4193L52.5963 27.4543ZM54.8005 54.5807L55.818 53.4786L53.6138 51.4436L52.5963 52.5457L54.8005 54.5807ZM39 58.5C28.7827 58.5 20.5 50.2173 20.5 40H17.5C17.5 51.8741 27.1259 61.5 39 61.5V58.5ZM20.5 40C20.5 29.7827 28.7827 21.5 39 21.5V18.5C27.1259 18.5 17.5 28.1259 17.5 40H20.5ZM39 21.5C44.3758 21.5 49.2142 23.791 52.5963 27.4543L54.8005 25.4193C50.8744 21.1666 45.2475 18.5 39 18.5V21.5ZM52.5963 52.5457C49.2142 56.209 44.3758 58.5 39 58.5V61.5C45.2475 61.5 50.8744 58.8334 54.8005 54.5807L52.5963 52.5457Z" fill="white"/>
<path d="M53.6043 33.594C53.9037 32.6727 55.2071 32.6727 55.5064 33.594L56.3266 36.1181C56.4604 36.5301 56.8444 36.8091 57.2776 36.8091L59.9315 36.8091C60.9003 36.8091 61.303 38.0487 60.5193 38.6181L58.3723 40.178C58.0218 40.4327 57.8751 40.884 58.009 41.2961L58.8291 43.8201C59.1284 44.7414 58.074 45.5075 57.2903 44.9381L55.1432 43.3782C54.7927 43.1235 54.3181 43.1235 53.9676 43.3782L51.8205 44.9381C51.0368 45.5075 49.9823 44.7414 50.2817 43.8201L51.1018 41.2961C51.2357 40.884 51.089 40.4327 50.7385 40.178L48.5915 38.6181C47.8077 38.0487 48.2105 36.8091 49.1792 36.8091L51.8332 36.8091C52.2664 36.8091 52.6504 36.5301 52.7842 36.1181L53.6043 33.594Z" fill="white"/>
</svg>
