<svg width="82" height="80" viewBox="0 0 82 80" fill="none" xmlns="http://www.w3.org/2000/svg">
<rect width="82" height="80" rx="40" fill="#FF5F7E" fill-opacity="0.5"/>
<path d="M43 20.1V24.14C50.9 25.12 57 31.84 57 40C57 46.42 53.16 52 47.56 54.56L43 50V60H53L50.56 57.56C56.82 54.14 61 47.52 61 40C61 29.64 53.1 21.1 43 20.1ZM39 20C35.1 20.4 31.4 21.92 28.36 24.42L31.2 27.26C33.4702 25.51 36.1597 24.3859 39 24V20ZM25.4 27.36C22.92 30.4 21.4 34.1 21 38H25C25.38 35.16 26.5 32.46 28.26 30.2L25.4 27.36ZM29 32V36H35V38H33C30.8 38 29 39.8 29 42V48H39V44H33V42H35C37.22 42 39 40.22 39 38V36C39 34.9391 38.5786 33.9217 37.8284 33.1716C37.0783 32.4214 36.0609 32 35 32H29ZM41 32V42H47V48H51V42H53V38H51V32H47V38H45V32H41ZM21 42C21.4 45.9 22.94 49.6 25.44 52.64L28.28 49.8C26.524 47.5312 25.3931 44.8419 25 42H21ZM31.22 52.74L28.36 55.58C31.3988 58.0611 35.0977 59.5977 39 60V56C36.1634 55.6229 33.4781 54.4977 31.22 52.74Z" fill="white"/>
</svg>
