<svg width="82" height="80" viewBox="0 0 82 80" fill="none" xmlns="http://www.w3.org/2000/svg">
<rect width="81.4321" height="80" rx="40" fill="#FF5F7E" fill-opacity="0.5"/>
<path d="M63.4321 60H18V56.3457H20.2716V22.2716C20.2716 21.6691 20.5109 21.0913 20.9369 20.6653C21.363 20.2393 21.9407 20 22.5432 20H54.3457C54.9481 20 55.5259 20.2393 55.9519 20.6653C56.378 21.0913 56.6173 21.6691 56.6173 22.2716V33.6296H61.1605V56.3457H63.4321V60ZM52.0741 56.3457H57.5062V37.284H42.0988V56.3457H48.4198V42.716H52.0741V56.3457ZM52.963 33.6296V23.6543H23.9259V56.3457H38.4444V33.6296H52.963ZM29.358 38.1728H33.9012V42.716H29.358V38.1728ZM29.358 47.2593H33.9012V51.8025H29.358V47.2593ZM29.358 29.0864H33.9012V33.6296H29.358V29.0864Z" fill="white"/>
</svg>
