<svg width="81" height="80" viewBox="0 0 81 80" fill="none" xmlns="http://www.w3.org/2000/svg">
<path d="M40.0086 62.6653C40.2923 62.8812 40.6409 62.9989 41 63C41.3591 62.9989 41.7077 62.8812 41.9914 62.6653C51.0279 55.7805 57.2526 49.8518 61.6083 44.0029C67.1667 36.5283 68.4344 29.6275 65.3789 23.4917C63.2011 19.109 56.9276 15.555 49.6301 17.6109C46.1431 18.5986 43.1007 20.7167 41 23.6192C38.8993 20.7167 35.8569 18.5986 32.3699 17.6109C25.0562 15.5231 18.7989 19.109 16.6211 23.4917C13.5656 29.6275 14.8333 36.5283 20.3917 44.0029C24.7474 49.8518 30.9721 55.7805 40.0086 62.6653Z" stroke="#1A4A67" stroke-width="3"/>
<path d="M8.5 42.2941H32.0294L36 32L43 52L47 39.4706H72.5" stroke="#1A4A67" stroke-width="3" stroke-linejoin="round"/>
</svg>
