<svg width="81" height="80" viewBox="0 0 81 80" fill="none" xmlns="http://www.w3.org/2000/svg">
<path d="M51.2358 12.7203C53.3578 9.85641 56.7623 8 60.6004 8C67.0332 8 72.2479 13.2148 72.2479 19.6475C72.2479 25.2825 68.817 29.9208 63.5005 31" stroke="#1A4A67" stroke-width="3"/>
<path d="M49.2735 57.2191C58.0965 53.2074 64.2314 44.3162 64.2314 33.9921C64.2314 19.9078 52.8138 8.49023 38.7294 8.49023C30.3696 8.49023 22.9493 12.5127 18.2985 18.7278M18.2985 18.7278C21.6146 19.7699 29.0559 23.5952 32.2927 30.5592C35.5295 37.5232 39.3221 40.4085 40.8138 40.9807C41.4268 39.489 43.5633 35.7463 46.7602 36.5056C51.6644 37.6703 52.0005 47.5 46.2084 50.36C45.1461 50.8845 42.6533 51.7888 40.2621 49.9823M18.2985 18.7278C17.2008 20.3217 15.0667 25.0787 15.3119 31.3561C15.5106 36.4443 11.0819 40.9807 8.75244 43.3715L15.6796 45.8849L13.9632 51.7699L15.3119 53.4251V55.0803L16.2314 56.0611C15.9044 58.268 16.5624 62.6818 21.8099 62.6818C27.0574 62.6818 34.2952 59.04 37.2582 57.2191" stroke="#1A4A67" stroke-width="3"/>
<path d="M30.0249 60.7822L35.3582 72.0006" stroke="#1A4A67" stroke-width="3" stroke-linejoin="round"/>
<path d="M46.9443 49.8691L53.0133 70.7734" stroke="#1A4A67" stroke-width="3" stroke-linejoin="round"/>
<path d="M21.2578 34.9121C22.2182 36.3221 24.7766 38.296 27.3268 34.9121" stroke="#1A4A67" stroke-width="3" stroke-linejoin="round"/>
<circle cx="43.6956" cy="46.6819" r="1.28736" fill="#1A4A67"/>
</svg>
