<svg width="84" height="80" viewBox="0 0 84 80" fill="none" xmlns="http://www.w3.org/2000/svg">
<rect width="83.1757" height="79.9997" rx="39.9998" fill="#FF5F7E" fill-opacity="0.5"/>
<path d="M41.5877 20C45.5583 20 49.2629 21.1435 52.3883 23.1187L49.6881 36.2009H33.4873L30.7871 23.1173C34.0188 21.075 37.7647 19.9939 41.5877 20V20Z" stroke="white" stroke-width="3" stroke-linecap="round" stroke-linejoin="round"/>
<path d="M38.8882 28.1006H44.2885" stroke="white" stroke-width="3" stroke-linecap="round" stroke-linejoin="round"/>
<path d="M41.5884 25.4004V30.8007" stroke="white" stroke-width="3" stroke-linecap="round" stroke-linejoin="round"/>
<path d="M49.3505 36.9604C49.3505 41.807 46.4342 45.7359 41.5876 45.7359C36.7411 45.7359 33.8247 41.807 33.8247 36.9604" stroke="white" stroke-width="3"/>
<path d="M55.1757 59.9997C55.1757 52.6877 49.0922 46.7603 41.5878 46.7603C34.0835 46.7603 28 52.6877 28 59.9997" stroke="white" stroke-width="3"/>
<path d="M46.8145 47.4575L46.8145 50.2447L41.6851 55.645L36.5557 50.2447L36.5557 47.4575" stroke="white" stroke-width="3"/>
</svg>
