<svg width="83" height="80" viewBox="0 0 83 80" fill="none" xmlns="http://www.w3.org/2000/svg">
<rect width="82.0995" height="80" rx="40" fill="#FF5F7E" fill-opacity="0.5"/>
<path d="M41.0498 49.9647C39.2158 49.9647 37.457 49.2362 36.1602 47.9394C34.8634 46.6425 34.1348 44.8837 34.1348 43.0498C34.1348 40.4682 35.5409 38.2093 37.5923 37.0338L59.9736 24.0798L47.2271 46.1615C46.0746 48.4204 43.7466 49.9647 41.0498 49.9647ZM41.0498 20C45.2218 20 49.1172 21.1525 52.5055 23.0426L47.6651 25.8316C45.6597 25.0479 43.3547 24.61 41.0498 24.61C36.1592 24.61 31.469 26.5527 28.0109 30.0108C24.5527 33.469 22.61 38.1592 22.61 43.0498C22.61 48.1438 24.6614 52.7537 28.0036 56.0729H28.0267C28.9256 56.9718 28.9256 58.4239 28.0267 59.3229C27.1277 60.2218 25.6525 60.2218 24.7536 59.3459C22.6099 57.2084 20.9097 54.6684 19.7507 51.8717C18.5917 49.0751 17.9968 46.077 18 43.0498C18 36.9366 20.4285 31.0738 24.7511 26.7511C29.0738 22.4284 34.9366 20 41.0498 20ZM64.0995 43.0498C64.0995 49.4115 61.518 55.1739 57.3459 59.3459C56.447 60.2218 54.9949 60.2218 54.0959 59.3229C53.8823 59.1096 53.7127 58.8564 53.5971 58.5775C53.4814 58.2987 53.4219 57.9998 53.4219 57.6979C53.4219 57.396 53.4814 57.0971 53.5971 56.8182C53.7127 56.5394 53.8823 56.2861 54.0959 56.0729C55.8102 54.3657 57.1693 52.3359 58.0951 50.1007C59.0208 47.8655 59.4948 45.4691 59.4896 43.0498C59.4896 40.7448 59.0516 38.4398 58.2449 36.3653L61.0339 31.5249C62.947 34.9823 64.0995 38.8547 64.0995 43.0498Z" fill="white"/>
</svg>
