<svg width="84" height="80" viewBox="0 0 84 80" fill="none" xmlns="http://www.w3.org/2000/svg">
<rect width="83.5526" height="80.0002" rx="40.0001" fill="#FF5F7E" fill-opacity="0.5"/>
<path d="M47.4171 28.9976L37.2539 39.1607" stroke="white" stroke-width="3" stroke-linejoin="round"/>
<path d="M59.7716 44.9885C57.5493 43.2636 51.7716 40.5503 46.4382 43.4967H38.6527C36.9276 43.4967 35.5291 44.8952 35.5291 46.6202V46.6202C35.5291 48.3453 36.9276 49.7438 38.6527 49.7438H46.8112H34.7832L22.8056 46.2032C21.2152 45.7331 19.5375 46.6031 19.0055 48.1739V48.1739C18.4526 49.8062 19.3428 51.5751 20.9831 52.1037L34.5705 56.4822C38.4261 57.7246 42.5072 58.1066 46.5263 57.6012L55.9953 56.4104H59.7716" stroke="white" stroke-width="3" stroke-linejoin="round"/>
<rect x="60.3394" y="45.4629" width="3.71329" height="13.0373" stroke="white" stroke-width="3"/>
<path d="M52.6262 42.0513C53.2084 40.3557 53.5245 38.5364 53.5245 36.6434C53.5245 27.4515 46.073 20 36.8811 20C27.6893 20 20.2378 27.4515 20.2378 36.6434C20.2378 40.3859 21.4731 43.84 23.5582 46.62" stroke="white" stroke-width="3"/>
<mask id="path-6-inside-1_106_13138" fill="white">
<ellipse cx="38.5126" cy="30.6759" rx="2.61072" ry="2.65734"/>
</mask>
<path d="M38.1233 30.6759C38.1233 30.5369 38.2477 30.3332 38.5126 30.3332V36.3332C41.6611 36.3332 44.1233 33.7501 44.1233 30.6759H38.1233ZM38.5126 30.3332C38.7774 30.3332 38.9019 30.5369 38.9019 30.6759H32.9019C32.9019 33.7501 35.364 36.3332 38.5126 36.3332V30.3332ZM38.9019 30.6759C38.9019 30.8149 38.7774 31.0186 38.5126 31.0186V25.0186C35.364 25.0186 32.9019 27.6017 32.9019 30.6759H38.9019ZM38.5126 31.0186C38.2477 31.0186 38.1233 30.8149 38.1233 30.6759H44.1233C44.1233 27.6017 41.6611 25.0186 38.5126 25.0186V31.0186Z" fill="white" mask="url(#path-6-inside-1_106_13138)"/>
<circle cx="46.2985" cy="38.1354" r="1.5" stroke="white" stroke-width="2.31469"/>
<rect x="27.2388" y="29.5186" width="4.64569" height="8.65501" rx="2.32284" stroke="white" stroke-width="3"/>
</svg>
