<svg width="83" height="80" viewBox="0 0 83 80" fill="none" xmlns="http://www.w3.org/2000/svg">
<rect width="82.6665" height="80" rx="40" fill="#FF5F7E" fill-opacity="0.5"/>
<path d="M27.9998 46.6667V56.6667H61.3332V33.3333H54.6665V30H62.5298C63.2732 30 63.5432 30.0767 63.8132 30.2233C64.0829 30.3648 64.3036 30.5844 64.4465 30.8533C64.5898 31.1233 64.6665 31.3933 64.6665 32.1367V57.8633C64.6665 58.6067 64.5898 58.8767 64.4432 59.1467C64.3017 59.4164 64.0821 59.6371 63.8132 59.78C63.5432 59.9233 63.2732 60 62.5298 60H26.8032C26.0598 60 25.7898 59.9233 25.5198 59.7767C25.2501 59.6352 25.0294 59.4156 24.8865 59.1467C24.7465 58.8767 24.6665 58.6067 24.6665 57.8667V46.6667H27.9998Z" fill="white"/>
<path d="M54.6667 23.3333H21.3333V46.6667H54.6667V23.3333ZM58 22.1367V47.8633C58 48.6067 57.9233 48.8767 57.7767 49.1467C57.6352 49.4164 57.4156 49.6371 57.1467 49.78C56.8767 49.9233 56.6067 50 55.8633 50H20.1367C19.3933 50 19.1233 49.9233 18.8533 49.7767C18.5836 49.6352 18.3629 49.4156 18.22 49.1467C18.08 48.8767 18 48.6067 18 47.8667V22.1367C18 21.3933 18.0767 21.1233 18.2233 20.8533C18.3648 20.5836 18.5844 20.3629 18.8533 20.22C19.1233 20.08 19.3933 20 20.1333 20H55.86C56.6033 20 56.8733 20.0767 57.1433 20.2233C57.413 20.3648 57.6338 20.5844 57.7767 20.8533C57.92 21.1233 57.9967 21.3933 57.9967 22.1367H58Z" fill="white"/>
<path d="M37.9998 43.3332C35.7897 43.3332 33.6701 42.4552 32.1073 40.8924C30.5445 39.3296 29.6665 37.21 29.6665 34.9998C29.6665 32.7897 30.5445 30.6701 32.1073 29.1073C33.6701 27.5445 35.7897 26.6665 37.9998 26.6665C40.21 26.6665 42.3296 27.5445 43.8924 29.1073C45.4552 30.6701 46.3332 32.7897 46.3332 34.9998C46.3332 37.21 45.4552 39.3296 43.8924 40.8924C42.3296 42.4552 40.21 43.3332 37.9998 43.3332ZM37.9998 39.9998C39.3259 39.9998 40.5977 39.4731 41.5354 38.5354C42.4731 37.5977 42.9998 36.3259 42.9998 34.9998C42.9998 33.6738 42.4731 32.402 41.5354 31.4643C40.5977 30.5266 39.3259 29.9998 37.9998 29.9998C36.6738 29.9998 35.402 30.5266 34.4643 31.4643C33.5266 32.402 32.9998 33.6738 32.9998 34.9998C32.9998 36.3259 33.5266 37.5977 34.4643 38.5354C35.402 39.4731 36.6738 39.9998 37.9998 39.9998Z" fill="white"/>
</svg>
