<svg width="25" height="25" viewBox="0 0 25 25" fill="none" xmlns="http://www.w3.org/2000/svg">
<rect width="24.8538" height="24.14" fill="#FF5F7E" fill-opacity="0.4"/>
<rect width="16.8538" height="16.14" transform="translate(4 4)" fill="#1A4A67"/>
<path d="M15.688 10.2583C15.5817 10.012 15.4283 9.78891 15.2366 9.60137C15.0447 9.41327 14.8185 9.26379 14.5702 9.16106C14.3127 9.05411 14.0366 8.99936 13.7578 9.00001C13.3666 9.00001 12.985 9.10711 12.6534 9.30942C12.5741 9.35781 12.4987 9.41096 12.4273 9.46888C12.3559 9.41096 12.2805 9.35781 12.2012 9.30942C11.8696 9.10711 11.488 9.00001 11.0968 9.00001C10.8152 9.00001 10.5423 9.05395 10.2844 9.16106C10.0353 9.26419 9.81081 9.41255 9.61803 9.60137C9.42603 9.7887 9.27266 10.0119 9.16661 10.2583C9.05633 10.5145 9 10.7866 9 11.0667C9 11.3309 9.05395 11.6062 9.16105 11.8862C9.2507 12.1203 9.37922 12.363 9.54345 12.6082C9.80367 12.9961 10.1615 13.4008 10.6058 13.8109C11.342 14.4908 12.0711 14.9605 12.102 14.9795L12.2901 15.1001C12.3734 15.1533 12.4805 15.1533 12.5638 15.1001L12.7518 14.9795C12.7827 14.9597 13.511 14.4908 14.2481 13.8109C14.6923 13.4008 15.0501 12.9961 15.3104 12.6082C15.4746 12.363 15.6039 12.1203 15.6928 11.8862C15.7999 11.6062 15.8538 11.3309 15.8538 11.0667C15.8546 10.7866 15.7983 10.5145 15.688 10.2583Z" fill="white"/>
</svg>
