<svg width="127" height="341" viewBox="0 0 127 341" fill="none" xmlns="http://www.w3.org/2000/svg">
<g opacity="0.4">
<circle cx="42" cy="5" r="5" fill="#FF5F7E"/>
<circle cx="78" cy="5" r="5" fill="#FF5F7E"/>
<circle cx="114" cy="5" r="5" fill="#FF5F7E"/>
<circle cx="60" cy="5" r="5" fill="#FF5F7E"/>
<circle cx="96" cy="5" r="5" fill="#FF5F7E"/>
<circle cx="42" cy="41" r="5" fill="#FF5F7E"/>
<circle cx="78" cy="41" r="5" fill="#FF5F7E"/>
<circle cx="114" cy="41" r="5" fill="#FF5F7E"/>
<circle cx="60" cy="41" r="5" fill="#FF5F7E"/>
<circle cx="96" cy="41" r="5" fill="#FF5F7E"/>
<circle cx="42" cy="77" r="5" fill="#FF5F7E"/>
<circle cx="78" cy="77" r="5" fill="#FF5F7E"/>
<circle cx="114" cy="77" r="5" fill="#FF5F7E"/>
<circle cx="60" cy="77" r="5" fill="#FF5F7E"/>
<circle cx="96" cy="77" r="5" fill="#FF5F7E"/>
<circle cx="42" cy="113" r="5" fill="#FF5F7E"/>
<circle cx="78" cy="113" r="5" fill="#FF5F7E"/>
<circle cx="114" cy="113" r="5" fill="#FF5F7E"/>
<circle cx="60" cy="113" r="5" fill="#FF5F7E"/>
<circle cx="96" cy="113" r="5" fill="#FF5F7E"/>
<circle cx="42" cy="149" r="5" fill="#FF5F7E"/>
<circle cx="78" cy="149" r="5" fill="#FF5F7E"/>
<circle cx="114" cy="149" r="5" fill="#FF5F7E"/>
<circle cx="60" cy="149" r="5" fill="#FF5F7E"/>
<circle cx="96" cy="149" r="5" fill="#FF5F7E"/>
<circle cx="42" cy="23" r="5" fill="#FF5F7E"/>
<circle cx="78" cy="23" r="5" fill="#FF5F7E"/>
<circle cx="114" cy="23" r="5" fill="#FF5F7E"/>
<circle cx="60" cy="23" r="5" fill="#FF5F7E"/>
<circle cx="96" cy="23" r="5" fill="#FF5F7E"/>
<circle cx="42" cy="59" r="5" fill="#FF5F7E"/>
<circle cx="78" cy="59" r="5" fill="#FF5F7E"/>
<circle cx="114" cy="59" r="5" fill="#FF5F7E"/>
<circle cx="60" cy="59" r="5" fill="#FF5F7E"/>
<circle cx="96" cy="59" r="5" fill="#FF5F7E"/>
<circle cx="42" cy="95" r="5" fill="#FF5F7E"/>
<circle cx="78" cy="95" r="5" fill="#FF5F7E"/>
<circle cx="114" cy="95" r="5" fill="#FF5F7E"/>
<circle cx="60" cy="95" r="5" fill="#FF5F7E"/>
<circle cx="96" cy="95" r="5" fill="#FF5F7E"/>
<circle cx="42" cy="131" r="5" fill="#FF5F7E"/>
<circle cx="78" cy="131" r="5" fill="#FF5F7E"/>
<circle cx="114" cy="131" r="5" fill="#FF5F7E"/>
<circle cx="60" cy="131" r="5" fill="#FF5F7E"/>
<circle cx="96" cy="131" r="5" fill="#FF5F7E"/>
<circle cx="42" cy="167" r="5" fill="#FF5F7E"/>
<circle cx="78" cy="167" r="5" fill="#FF5F7E"/>
<circle cx="114" cy="167" r="5" fill="#FF5F7E"/>
<circle cx="60" cy="167" r="5" fill="#FF5F7E"/>
<circle cx="96" cy="167" r="5" fill="#FF5F7E"/>
</g>
<path d="M0 341C70.1402 341 127 284.14 127 214H0V341Z" fill="#1A4A67"/>
</svg>
